<!-- Copyright 2000-2022 JetBrains s.r.o. and contributors. Use of this source code is governed by the Apache 2.0 license. -->
<svg width="16" height="16" viewBox="0 0 16 16" fill="none" xmlns="http://www.w3.org/2000/svg">
<circle cx="8" cy="8" r="6.5" fill="#25324D" stroke="#548AF7"/>
<path d="M8.13295 11.5C9.61223 11.5 10.8836 10.6105 11.2075 9.33909H10.2213C9.90229 10.0739 9.11914 10.6057 8.13295 10.6057C6.77936 10.6057 5.80284 9.51796 5.80284 8C5.80284 6.48204 6.77936 5.39434 8.13295 5.39434C9.11914 5.39434 9.90229 5.92611 10.2213 6.66091H11.2075C10.8836 5.3895 9.61223 4.5 8.13295 4.5C6.21859 4.5 4.79248 5.99378 4.79248 8C4.79248 10.0062 6.21859 11.5 8.13295 11.5Z" fill="#548AF7"/>
<path d="M10 10C10 9.44772 10.4477 9 11 9H13.9994C14.5517 9 14.9994 9.44772 14.9994 10V15.7092C14.9994 15.9189 14.7567 16.0354 14.5931 15.9042L12.4997 14.2262L10.4064 15.9042C10.2427 16.0354 10 15.9189 10 15.7092V10Z" fill="#F2C55C"/>
</svg>
